<svg xmlns="http://www.w3.org/2000/svg" xmlns:xlink="http://www.w3.org/1999/xlink" version="1.1" id="dlmao_x5F_logo" x="0" y="0" viewBox="0 0 75 26" xml:space="preserve" enable-background="new 0 0 75 26">
  <style type="text/css">
    
	.st0{fill:#333433;}

  </style>
  <path class="st0" d="M20.7 2.2l-2.8 4 -5.7 0.2L9.4 2.9C8.7 2.1 8.1 2.7 8.1 3.1L7.8 22.1c-1.5-0.3-2.8-0.8-3.5-1.5 -0.4-0.4-0.5-0.8-0.5-1.4C4.6 13.7 5 10.4 1.4 9.1 1.1 9 0.7 9.1 0.6 9.5c-0.1 0.3 0 0.7 0.4 0.8 2.4 0.9 2.4 2.6 1.6 8.8 -0.1 0.9 0.2 1.7 0.8 2.4 0.9 1 2.6 1.6 5.1 2.1 0.3 0.1 0.7 0.1 1 0.1l7.8 0.3 2.9 0.1c1 0 1.8-0.7 1.8-1.7v-20C22 1.9 21.3 1.6 20.7 2.2M12.3 12.7c-0.6 0-1.1-0.5-1.1-1.1 0-0.6 0.5-1.1 1.1-1.1 0.6 0 1.1 0.5 1.1 1.1C13.5 12.2 13 12.7 12.3 12.7M18.5 12.7c-1 0-1.8-0.8-1.8-1.8s0.8-1.8 1.8-1.8 1.8 0.8 1.8 1.8S19.5 12.7 18.5 12.7M38.9 9.4c-0.3-0.9-0.7-1.7-1.2-2.4 -1.3-1.6-3.2-2.3-5.6-2.3 -1.4 0-2.8 0.3-4.1 1 -1.3 0.7-2.4 1.6-3.2 3 -0.8 1.3-1.2 2.9-1.2 4.8 0 1.3 0.3 2.6 1 3.6 0.6 1.1 1.5 1.8 2.7 2.3 0.1 0 0.1 0 0.2 0.1 0 0.2 0 0.3 0 0.5 0 1 0.3 1.8 0.8 2.4 0.4 0.5 0.9 0.9 1.5 1.1 0.6 0.3 1.2 0.4 1.8 0.4 1.4 0 2.7-0.6 3.9-1.8 1.2-1.2 2.1-2.7 2.8-4.4 0.7-1.8 1.1-3.5 1.1-5.2C39.4 11.3 39.2 10.3 38.9 9.4zM36.5 16.7c-0.6 1.5-1.3 2.8-2.3 3.7 -0.9 0.9-1.8 1.4-2.7 1.4 -0.4 0-0.7-0.1-1-0.2 -0.3-0.1-0.1-0.3-0.4-0.6 -0.3-0.4-0.2-0.8-0.2-1.2v-0.1c1 0 1-0.2 1.6-0.4 0.7-0.3 1.1-0.7 1.6-1.2 0.3-0.3 0.2-0.5 0.2-0.7 0-0.3-0.2-0.6-0.3-0.6 -0.2-0.2-0.5-0.4-0.8-0.4 -0.2 0-0.5 0.1-0.7 0.3 -0.3 0.3-0.7 0.6-1.2 0.8 -0.2 0.1-0.4 0.1-0.6 0.2L32 9.8c0.1-0.3 0-0.5-0.1-0.8 -0.1-0.2-0.4-0.4-0.6-0.4 -0.2-0.1-0.6 0-0.9 0.2 -0.2 0.1-0.3 0.3-0.4 0.5l-2.2 8.1c-0.7-0.3-1.2-0.8-1.6-1.5 -0.4-0.7-0.7-1.6-0.7-2.5 0-1.1 0.2-2.2 0.7-3.3 0.5-1 1.2-1.8 2.2-2.5 1-0.6 2.1-1 3.6-1 1.8 0 3.2 0.5 4.1 1.6 0.4 0.5 0.7 1 0.9 1.7 0.2 0.7 0.3 1.5 0.3 2.3C37.4 13.7 37.1 15.2 36.5 16.7zM74.1 15c-0.2-0.3-0.4-0.6-0.7-0.7 -0.6-0.4-1.4-0.3-2 0 0-0.1 0-0.1 0-0.2 -0.2-0.4-0.5-0.6-0.9-0.6 -0.1 0-0.2 0-0.4 0.1 -0.9 0.3-1.7 0.9-2.3 1.8 -0.7 0.8-1.2 1.8-1.4 2.8 -0.1 0.3-0.1 0.5-0.1 0.7 -0.1 0.3-0.2 0.7-0.4 1.1 -0.2 0.5-0.5 0.9-0.8 1.3 -0.3 0.3-0.5 0.4-0.8 0.4 -0.1 0-0.2 0-0.2-0.1 -0.1-0.1-0.2-0.3-0.2-0.9 0-0.3 0-0.7 0.1-1.1 0.1-0.4 0.2-0.7 0.3-1.1l0.7-2.5c0.1-0.3 0-0.5-0.1-0.7 -0.1-0.2-0.3-0.4-0.6-0.5 -0.2 0-0.5 0-0.7 0.1 -0.3-0.3-0.6-0.6-1-0.8 -1-0.5-2.3-0.4-3.5 0.3 -0.7 0.4-1.3 1-1.8 1.7 -0.5 0.7-0.9 1.5-1.1 2.4 -0.1 0.4-0.3 0.8-0.5 1.3 -0.2 0.5-0.5 0.9-0.8 1.3 -0.3 0.3-0.5 0.4-0.8 0.4 -0.1 0-0.2 0-0.2-0.1 -0.1-0.1-0.2-0.3-0.2-0.9 0-0.3 0-0.7 0.1-1.1 0.1-0.4 0.1-0.7 0.2-1.1l0.4-1.3c0.1-0.5 0.2-0.9 0.2-1.2 0-0.6-0.2-1.1-0.4-1.5 -0.3-0.4-0.8-0.6-1.4-0.6 -0.7 0-1.4 0.5-2.2 1.4 -0.1-0.3-0.2-0.6-0.4-0.8 -0.7-0.8-1.9-1-3.1 0.2 0-0.1 0-0.3-0.1-0.4 -0.1-0.3-0.4-0.4-0.6-0.5 -0.3-0.1-0.5 0-0.7 0.1 -0.3 0.1-0.4 0.4-0.5 0.6l-1 3.8c0 0 0 0.1 0 0.1 -0.2 0.5-0.3 0.9-0.5 1.3 -0.2 0.4-0.5 0.8-0.9 1.3 -0.4 0.4-0.9 0.6-1.5 0.6 -0.2 0-0.3-0.1-0.4-0.1 -0.1-0.2-0.3-0.5-0.3-1.2 0-0.4 0-0.8 0.1-1.3 0.6-1.1 1.1-2.2 1.7-3.3 1.1-2.2 2-3.9 2.5-5 0.5-1.2 0.8-2.1 0.8-2.8 0-0.4-0.1-0.7-0.3-1 -0.2-0.3-0.6-0.7-1.3-0.7 -0.9 0-1.7 0.7-2.3 2.1 -0.5 1.2-0.9 2.5-1.3 3.7L39 18.1c0 0.1-0.1 0.2-0.1 0.4 0 0 0 0.1 0 0.1 -0.1 0.6-0.2 1.1-0.2 1.7 0 1 0.2 1.8 0.7 2.4 0.5 0.6 1.1 0.9 1.9 0.9 0.8 0 1.4-0.2 2-0.5 0 0 0 0.1 0.1 0.1 0.1 0.2 0.3 0.3 0.5 0.4 0.2 0.1 0.5 0.1 0.8-0.1l0.2-0.1c0.1-0.1 0.2-0.3 0.3-0.4 0.4-1.2 0.9-2.4 1.5-3.5 0.5-1.1 1.2-2 1.7-2.7 0.3-0.4 0.8-0.7 0.8-0.8v0.1c0 0.3-0.2 0.5-0.3 0.7l-1.6 5.6c-0.1 0.3-0.4 1.2-0.1 1.5 0.3 0.1 0.6 0.2 0.7 0.2l0.3 0c0.4 0 0.7-0.3 0.9-0.8 0.3-1 0.9-2.4 1.5-3.6 0.6-1.3 0.8-2.2 1.3-2.8 0.3-0.4 0.4-0.6 0.4-0.8 0 0.3 0.2 0.5 0.2 0.8l-0.2 1.2c-0.1 0.2-0.1 0.6-0.2 1.1 -0.1 0.5-0.1 1-0.1 1.6 0 0.9 0.2 1.6 0.6 2.1 0.4 0.5 1 0.8 1.8 0.8 0.9 0 1.6-0.4 2.2-1.1 0.1-0.1 0.1-0.2 0.2-0.3 0.1 0.1 0.1 0.2 0.2 0.2 0.3 0.4 0.6 0.7 1 0.8 1 0.5 2.3 0.4 3.4-0.3 0.4-0.2 0.7-0.5 1-0.8 0.1 0.2 0.2 0.4 0.3 0.5 0.2 0.3 0.5 0.5 0.8 0.6 0.3 0.1 0.6 0.2 1 0.2 0.9 0 1.6-0.4 2.2-1.1 0.1-0.1 0.2-0.3 0.3-0.4 0 0.1 0.1 0.2 0.2 0.2 0.3 0.4 0.7 0.7 1.1 0.9 0.9 0.5 2 0.5 3.1-0.1 1-0.5 1.7-1.6 2-2.1 0.4-0.6 0.7-1.3 1-2.2 0.3-0.9 0.4-1.6 0.4-2.3C74.4 16 74.3 15.5 74.1 15zM44.2 7.7c0.3 0.7-2.3 6.1-2.3 6.1C42.2 12.4 43.9 6.9 44.2 7.7zM62.2 18.4C62.2 18.4 62.2 18.4 62.2 18.4l0 0.1c-0.2 0.6-0.4 1.1-0.8 1.6 -0.3 0.5-0.8 0.9-1.2 1.2 -0.8 0.5-1.6 0.6-2 0 -0.2-0.3-0.4-0.8-0.4-1.3 0-0.2 0-0.5 0.1-0.8 0-0.1 0.1-0.2 0.1-0.3 0 0 0 0 0 0 0.2-0.5 0.4-1 0.7-1.5 0.3-0.5 0.8-0.9 1.2-1.2 0.8-0.5 1.6-0.6 2 0 0.2 0.3 0.3 0.7 0.3 1.3C62.3 17.9 62.3 18.2 62.2 18.4zM72.1 18.5c-0.6 1.7-1.2 2.6-2 3 -0.5 0.3-1.2 0.3-1.7-0.3 -0.3-0.3-0.4-0.8-0.4-1.4 0-0.4 0-0.7 0.2-1.1 0.2-0.7 0.5-1.4 1-2 0.4-0.4 0.7-0.8 1.1-1 0 0.1 0 0.1 0.1 0.2 0.1 0.2 0.3 0.3 0.5 0.3 0 0 0.1 0 0.1 0 0.2 0 0.3 0 0.4 0.1 0.2 0.2 0.5 0.2 0.8 0 0.1-0.1 0.1-0.1 0.2-0.1 0 0.1 0.1 0.3 0.1 0.6C72.4 17.2 72.3 17.9 72.1 18.5z"/>
</svg>
