<svg id="dlmao_logo" xmlns="http://www.w3.org/2000/svg" viewBox="0 0 73.88 22.2"><defs><style>.cls-1{fill:#fff;}</style></defs><title>logo</title><path class="cls-1" d="M20.7,2.24l-2.82,4-5.67.16L9.4,2.91c-0.65-.81-1.27-0.26-1.29.18L7.79,22.15a7,7,0,0,1-3.47-1.52,1.58,1.58,0,0,1-.47-1.39C4.58,13.75,5,10.43,1.42,9.09A0.63,0.63,0,1,0,1,10.28c2.39,0.89,2.44,2.57,1.62,8.81a2.84,2.84,0,0,0,.81,2.43c0.92,1,2.62,1.65,5.08,2.06l1,0.15L17.3,24l2.92,0.1A1.72,1.72,0,0,0,22,22.39v-20c0-.46-0.69-0.76-1.3-0.14m-8.35,10.5a1.11,1.11,0,1,1,1.11-1.11,1.11,1.11,0,0,1-1.11,1.11m6.2,0a1.78,1.78,0,1,1,1.78-1.78,1.78,1.78,0,0,1-1.78,1.78" transform="translate(-0.56 -1.9)"/><path class="cls-1" d="M38.95,9.4A6.88,6.88,0,0,0,37.7,7a6.88,6.88,0,0,0-5.6-2.33,9,9,0,0,0-4.07,1,7.85,7.85,0,0,0-3.17,3,8.9,8.9,0,0,0-1.22,4.79,6.88,6.88,0,0,0,1,3.61,5.55,5.55,0,0,0,2.66,2.31l0.16,0.06c0,0.17,0,.33,0,0.49a3.67,3.67,0,0,0,.84,2.43,4.2,4.2,0,0,0,1.47,1.14,4.46,4.46,0,0,0,1.84.4A5.55,5.55,0,0,0,35.49,22a13.1,13.1,0,0,0,2.83-4.45,14.41,14.41,0,0,0,1.05-5.24A9.94,9.94,0,0,0,38.95,9.4Zm-2.46,7.32a11.11,11.11,0,0,1-2.26,3.75,3.71,3.71,0,0,1-2.69,1.39,2.24,2.24,0,0,1-1-.21A1.2,1.2,0,0,1,30.19,21,1.76,1.76,0,0,1,30,19.85V19.73a2.7,2.7,0,0,0,1.59-.41,5,5,0,0,0,1.61-1.18,1.06,1.06,0,0,0-.07-1.36,1,1,0,0,0-.76-0.36,1.05,1.05,0,0,0-.73.31,3.41,3.41,0,0,1-1.16.77,3,3,0,0,1-.6.17L32,9.8A1,1,0,0,0,31.92,9a1,1,0,0,0-1.45-.28,0.87,0.87,0,0,0-.36.52l-2.23,8.15A3.54,3.54,0,0,1,26.29,16a4.94,4.94,0,0,1-.66-2.53,7.59,7.59,0,0,1,.74-3.27,6,6,0,0,1,2.17-2.49,6.31,6.31,0,0,1,3.56-1,4.88,4.88,0,0,1,4.05,1.61A4.67,4.67,0,0,1,37,10a8.13,8.13,0,0,1,.32,2.31A12.37,12.37,0,0,1,36.49,16.72Z" transform="translate(-0.56 -1.9)"/><path class="cls-1" d="M74.08,15a1.85,1.85,0,0,0-.65-0.73,1.94,1.94,0,0,0-2,0,1.23,1.23,0,0,0,0-.16,1,1,0,0,0-.92-0.61,1.06,1.06,0,0,0-.36.08,5.94,5.94,0,0,0-2.35,1.78,7.62,7.62,0,0,0-1.45,2.77,3.51,3.51,0,0,0-.14.71c-0.11.34-.23,0.7-0.39,1.09a5.36,5.36,0,0,1-.82,1.32,1,1,0,0,1-.75.45A0.22,0.22,0,0,1,64,21.69a1.48,1.48,0,0,1-.17-0.9,6.74,6.74,0,0,1,.1-1.1,8,8,0,0,1,.25-1.06l0.67-2.53a0.92,0.92,0,0,0-.09-0.74,1.06,1.06,0,0,0-.63-0.47,1,1,0,0,0-.7.12,2.87,2.87,0,0,0-1-.76A3.6,3.6,0,0,0,59,14.6a6.25,6.25,0,0,0-1.77,1.66,6.86,6.86,0,0,0-1.11,2.41A11.25,11.25,0,0,1,55.63,20a5.36,5.36,0,0,1-.82,1.32,1,1,0,0,1-.75.45,0.26,0.26,0,0,1-.21-0.05,1.53,1.53,0,0,1-.16-0.9,6.74,6.74,0,0,1,.1-1.1A8,8,0,0,1,54,18.63l0.36-1.35a6.61,6.61,0,0,0,.15-1.2,2.41,2.41,0,0,0-.44-1.5A1.7,1.7,0,0,0,52.74,14a3,3,0,0,0-2.19,1.45,2,2,0,0,0-.37-0.82c-0.65-.82-1.88-1-3.06.24a1.17,1.17,0,0,0-.1-0.37,1,1,0,0,0-1.33-.38,0.86,0.86,0,0,0-.46.6l-1,3.77a0.22,0.22,0,0,0,0,.09,12.53,12.53,0,0,1-.5,1.33,4.19,4.19,0,0,1-.94,1.26,2,2,0,0,1-1.52.62,0.43,0.43,0,0,1-.37-0.12,2,2,0,0,1-.26-1.22,8.8,8.8,0,0,1,.12-1.32c0.55-1.11,1.12-2.22,1.73-3.34,1.14-2.23,2-3.93,2.48-5a7.44,7.44,0,0,0,.79-2.83,1.82,1.82,0,0,0-.25-1,1.44,1.44,0,0,0-1.34-.72c-0.91,0-1.69.71-2.3,2.11A23.15,23.15,0,0,0,40.61,12L39,18.13a2.61,2.61,0,0,0-.1.45,0.18,0.18,0,0,0,0,.08,7.69,7.69,0,0,0-.18,1.74,3.81,3.81,0,0,0,.66,2.4,2.32,2.32,0,0,0,1.89.88,3.92,3.92,0,0,0,2-.5,0.38,0.38,0,0,1,.05.09,1,1,0,0,0,.48.37,0.94,0.94,0,0,0,.83-0.1l0.17-.13A0.94,0.94,0,0,0,45,23c0.45-1.21.94-2.39,1.47-3.51a18,18,0,0,1,1.68-2.71A8.66,8.66,0,0,1,49,16v0.09a2.75,2.75,0,0,1-.27.74l-1.57,5.63c-0.08.26-.41,1.24-0.13,1.46a1.4,1.4,0,0,0,.69.18l0.31,0A1.05,1.05,0,0,0,49,23.25a37.18,37.18,0,0,1,1.46-3.64,25.59,25.59,0,0,1,1.26-2.81,2,2,0,0,0,.38-0.75,2.8,2.8,0,0,1,.16.77l-0.17,1.24a10,10,0,0,0-.22,1.13,7.6,7.6,0,0,0-.13,1.58,3.46,3.46,0,0,0,.59,2.08,2.13,2.13,0,0,0,1.76.83,2.8,2.8,0,0,0,2.22-1.11l0.21-.27c0.05,0.09.12,0.16,0.17,0.24a2.93,2.93,0,0,0,1,.85,3.58,3.58,0,0,0,3.4-.32,5.66,5.66,0,0,0,1-.77,2.38,2.38,0,0,0,.32.54,2,2,0,0,0,.75.62,2.33,2.33,0,0,0,1,.22,2.77,2.77,0,0,0,2.21-1.11c0.11-.13.21-0.27,0.32-0.42a1.56,1.56,0,0,0,.15.22,3.58,3.58,0,0,0,1.08.95,3.21,3.21,0,0,0,3.1-.05,5.56,5.56,0,0,0,2-2.07A9.26,9.26,0,0,0,74,19a7.58,7.58,0,0,0,.42-2.35A3.38,3.38,0,0,0,74.08,15ZM44.21,7.66c0.29,0.73-2.31,6.08-2.31,6.08C42.19,12.43,43.93,6.92,44.21,7.66Zm18,10.79s0,0,0,0l0,0.13a5,5,0,0,1-.77,1.59,4.45,4.45,0,0,1-1.19,1.16c-0.82.53-1.6,0.55-2,0a2.09,2.09,0,0,1-.36-1.28,4.11,4.11,0,0,1,.09-0.78C58,19.19,58,19.1,58,19a0.07,0.07,0,0,1,0,0,4.81,4.81,0,0,1,.73-1.5,4.37,4.37,0,0,1,1.2-1.17c0.8-.53,1.6-0.57,2,0a2.08,2.08,0,0,1,.35,1.27A3.93,3.93,0,0,1,62.2,18.45Zm9.92,0c-0.58,1.65-1.22,2.64-2,3a1.27,1.27,0,0,1-1.73-.35A2.19,2.19,0,0,1,68,19.81a3.6,3.6,0,0,1,.15-1.09,5.34,5.34,0,0,1,1-2,4.44,4.44,0,0,1,1.14-1,0.51,0.51,0,0,0,.07.16,0.58,0.58,0,0,0,.53.27,0.34,0.34,0,0,0,.14,0,0.4,0.4,0,0,1,.37.11,0.54,0.54,0,0,0,.75,0,1,1,0,0,1,.15-0.12,2.22,2.22,0,0,1,.07.59A5.5,5.5,0,0,1,72.12,18.48Z" transform="translate(-0.56 -1.9)"/></svg>