<svg id="dlmao_logo" xmlns="http://www.w3.org/2000/svg" viewBox="0 0 45.38 47"><defs><style>.cls-1{fill:#333433;}</style></defs><title>logo_min</title><path class="cls-1" d="M43.93,1.23L38,9.71,26,10,20,2.64c-1.39-1.71-2.7-.54-2.72.37L16.62,43.37c-3.26-.7-5.92-1.72-7.34-3.21a3.34,3.34,0,0,1-1-2.93c1.53-11.64,2.45-18.67-5.16-21.51a1.34,1.34,0,1,0-.93,2.52c5.06,1.88,5.17,5.44,3.43,18.64A6,6,0,0,0,7.34,42c1.94,2,5.54,3.49,10.76,4.36,0.68,0.11,1.38.22,2.12,0.31l16.53,0.59,6.18,0.22a3.63,3.63,0,0,0,3.76-3.63V1.54c0-1-1.46-1.6-2.76-.3M24,23.46a2.35,2.35,0,1,1,2.35-2.35A2.35,2.35,0,0,1,24,23.46m15.7-.69a3.44,3.44,0,1,1,3.44-3.44,3.44,3.44,0,0,1-3.44,3.44" transform="translate(-1.31 -0.5)"/></svg>